<svg width="28" height="28" viewBox="0 0 28 28" fill="none" xmlns="http://www.w3.org/2000/svg">
<path fill-rule="evenodd" clip-rule="evenodd" d="M10.539 0.956398C11.6491 0.659308 12.7919 1.31828 13.0894 2.42702C13.3868 3.53576 12.727 4.67711 11.6169 4.9742C10.5067 5.27129 9.36394 4.61232 9.06647 3.50358C8.76901 2.39484 9.42881 1.25349 10.539 0.956398Z" fill="#75CF73"/>
<path fill-rule="evenodd" clip-rule="evenodd" d="M20.6754 4.31734C21.5176 3.53633 22.8363 3.58517 23.6183 4.42635C24.4003 5.26752 24.3514 6.58455 23.5092 7.36556C22.6669 8.14658 21.3482 8.09774 20.5662 7.25657C19.7842 6.41538 19.8331 5.09837 20.6754 4.31734Z" fill="#AB7FEE"/>
<path fill-rule="evenodd" clip-rule="evenodd" d="M16.4639 23.0316C17.574 22.7345 18.7168 23.3935 19.0143 24.5022C19.3118 25.6109 18.652 26.7523 17.5418 27.0494C16.4317 27.3465 15.2889 26.6875 14.9914 25.5788C14.6939 24.47 15.3537 23.3287 16.4639 23.0316Z" fill="#F7C854"/>
<path fill-rule="evenodd" clip-rule="evenodd" d="M0.952572 10.3925C1.24926 9.28357 2.3916 8.62382 3.50195 8.92013C4.61232 9.21645 5.27291 10.3573 4.97622 11.4663C4.67953 12.5752 3.53719 13.235 2.42683 12.9387C1.31647 12.6424 0.655883 11.5015 0.952572 10.3925Z" fill="#E89F3E"/>
<path fill-rule="evenodd" clip-rule="evenodd" d="M27.0234 17.6893C26.674 18.7828 25.5015 19.3874 24.4065 19.0385C23.3116 18.6896 22.7063 17.5185 23.0556 16.425C23.4049 15.3314 24.5775 14.7268 25.6724 15.0757C26.7674 15.4246 27.3727 16.5957 27.0234 17.6893Z" fill="#ED6285"/>
<path fill-rule="evenodd" clip-rule="evenodd" d="M7.44108 20.6649C8.26461 21.4656 8.28231 22.7834 7.4806 23.6059C6.6789 24.4284 5.35943 24.4461 4.53591 23.6454C3.71239 22.8447 3.69467 21.5269 4.49638 20.7044C5.29809 19.8819 6.61756 19.8643 7.44108 20.6649Z" fill="#60BDF3"/>
<path fill-rule="evenodd" clip-rule="evenodd" d="M5.63232 5.25061L11.9787 6.31622L16.9467 2.22278L13.7689 13.0018L5.63232 5.25061H5.63232Z" fill="#75CF73"/>
<path fill-rule="evenodd" clip-rule="evenodd" d="M11.1823 25.798L16.1287 21.7113L22.4567 22.7693L14.3344 15.0092L11.1823 25.798Z" fill="#FBCA59"/>
<path fill-rule="evenodd" clip-rule="evenodd" d="M25.7044 10.6461L19.6825 8.36928L17.4458 2.34998L14.7698 13.2641L25.7044 10.6461Z" fill="#AB7FEE"/>
<path fill-rule="evenodd" clip-rule="evenodd" d="M22.8175 22.3987L21.7462 16.1263L25.848 11.1407L15.0498 14.2618L22.8175 22.3987Z" fill="#ED6285"/>
<path fill-rule="evenodd" clip-rule="evenodd" d="M2.25195 16.9247L6.32805 11.9371L5.25083 5.61597L13.0323 13.7316L2.25195 16.9247H2.25195Z" fill="#E9A03E"/>
<path fill-rule="evenodd" clip-rule="evenodd" d="M10.6816 25.6702L8.42668 19.6742L2.38293 17.414L13.3135 14.752L10.6816 25.6702Z" fill="#60BDF3"/>
</svg>
